<?xml version="1.0" standalone="no"?>
<!DOCTYPE svg PUBLIC "-//W3C//DTD SVG 20010904//EN"
 "http://www.w3.org/TR/2001/REC-SVG-20010904/DTD/svg10.dtd">
<svg version="1.0" xmlns="http://www.w3.org/2000/svg"
 width="700.000000pt" height="700.000000pt" viewBox="0 0 700.000000 700.000000"
 preserveAspectRatio="xMidYMid meet">
<metadata>
Created by potrace 1.14, written by Peter Selinger 2001-2017
</metadata>
<g transform="translate(0.000000,700.000000) scale(0.100000,-0.100000)"
fill="#000000" stroke="none">
<path d="M1967 6268 c-27 -20 -47 -154 -48 -323 -1 -152 14 -265 53 -399 61
-209 209 -411 393 -534 38 -26 72 -49 75 -52 3 -3 43 -24 90 -47 107 -53 220
-94 332 -122 106 -27 124 -21 133 42 57 387 -2 717 -170 952 -148 206 -403
370 -718 461 -139 40 -119 37 -140 22z"/>
<path d="M4772 6100 c-260 -142 -376 -312 -368 -539 4 -105 4 -107 36 -201 28
-86 72 -179 86 -184 18 -7 177 93 248 154 97 85 158 178 186 280 19 71 14 194
-13 290 -33 116 -85 230 -106 229 -9 0 -40 -13 -69 -29z"/>
<path d="M3667 5883 c-80 -87 -100 -112 -158 -198 -91 -135 -186 -341 -205
-445 -3 -14 -7 -31 -9 -38 -6 -18 -18 -137 -18 -182 -1 -54 11 -144 22 -173 6
-15 8 -27 6 -27 -9 0 57 -173 95 -250 80 -166 287 -450 326 -450 46 0 209 211
300 386 94 180 142 365 138 529 -6 275 -139 562 -385 832 -54 59 -70 62 -112
16z"/>
<path d="M5570 5746 c-120 -27 -252 -120 -320 -226 -68 -106 -127 -293 -101
-323 6 -8 42 -22 79 -31 214 -50 370 -33 500 55 106 70 187 182 238 328 33 95
38 135 20 154 -40 39 -307 67 -416 43z"/>
<path d="M1419 5523 c-13 -8 -44 -40 -69 -70 -25 -31 -50 -61 -57 -68 -25 -26
-123 -184 -158 -255 -68 -138 -78 -165 -121 -345 -3 -11 -6 -69 -8 -129 -5
-218 67 -433 226 -666 74 -109 198 -253 220 -256 36 -5 205 205 289 361 111
203 155 373 146 569 -6 139 -10 160 -43 265 -47 144 -159 348 -253 457 -141
164 -135 160 -172 137z"/>
<path d="M5688 4975 c-2 -1 -30 -5 -63 -9 -80 -8 -206 -39 -289 -70 -233 -88
-394 -231 -514 -456 -36 -69 -98 -231 -108 -284 -2 -11 -10 -53 -18 -93 -18
-93 -9 -103 84 -97 202 12 434 91 584 198 68 48 167 149 215 220 79 114 154
296 186 451 18 89 19 121 3 131 -11 7 -74 14 -80 9z"/>
<path d="M4474 4858 c-203 -122 -330 -278 -379 -468 -25 -95 -28 -274 -7 -390
22 -117 35 -144 65 -134 34 10 78 34 127 68 174 121 287 273 336 451 20 74 26
256 11 345 -9 54 -36 140 -50 158 -15 19 -28 15 -103 -30z"/>
<path d="M6290 4725 c-245 -43 -421 -165 -553 -383 -79 -131 -164 -359 -141
-382 23 -23 186 -45 329 -44 137 1 192 10 299 45 186 62 348 219 462 449 45
91 94 225 94 259 0 26 -6 29 -97 47 -104 21 -299 25 -393 9z"/>
<path d="M2902 4463 c-34 -13 -82 -164 -87 -275 -11 -215 111 -379 357 -478
84 -34 100 -23 128 89 58 222 24 381 -108 510 -83 81 -250 170 -290 154z"/>
<path d="M2380 4439 c-154 -53 -288 -148 -329 -232 -40 -83 -50 -134 -47 -246
4 -134 30 -243 62 -255 17 -7 130 33 200 70 106 56 162 112 207 204 29 61 31
72 31 185 1 134 -25 269 -53 285 -11 5 -36 1 -71 -11z"/>
<path d="M303 3992 c-10 -6 -33 -87 -48 -167 -28 -142 -28 -304 -1 -410 46
-181 175 -319 406 -435 101 -51 221 -90 241 -79 12 6 24 39 38 101 31 139 32
144 35 266 5 140 -12 229 -64 338 -79 164 -261 301 -498 374 -69 22 -90 24
-109 12z"/>
<path d="M3531 3895 c-5 -5 -12 -64 -16 -130 -3 -66 -8 -145 -10 -175 -2 -30
-7 -102 -10 -160 -3 -58 -8 -134 -10 -170 -2 -36 -7 -108 -10 -160 -9 -147
-16 -245 -19 -248 -3 -2 -126 122 -217 219 -19 20 -125 130 -235 245 -111 115
-234 243 -274 286 -39 42 -80 78 -91 81 -15 4 -40 -15 -99 -73 -44 -44 -80
-87 -80 -97 0 -21 10 -33 200 -233 76 -80 152 -161 170 -180 18 -19 91 -97
164 -174 72 -76 148 -157 170 -180 21 -22 70 -75 110 -117 152 -160 167 -179
162 -197 -3 -9 -8 -72 -11 -140 -4 -67 -8 -142 -10 -165 -2 -23 -6 -94 -10
-157 -3 -63 -8 -137 -10 -165 -2 -27 -6 -99 -10 -160 -3 -60 -8 -135 -10 -165
-2 -30 -7 -98 -10 -150 -13 -215 -15 -248 -19 -325 -15 -229 -16 -261 -7 -274
14 -21 611 -22 636 -1 13 10 15 26 11 74 -6 72 -16 222 -21 321 -2 39 -6 111
-9 160 -6 89 -10 152 -22 335 -11 184 -12 206 -18 315 -4 61 -9 137 -11 170
-2 33 -7 107 -10 165 -3 58 -8 128 -10 156 l-4 51 112 115 c62 64 242 249 401
412 310 317 315 323 316 346 0 21 -151 170 -173 170 -9 0 -50 -33 -90 -73
-123 -125 -534 -551 -556 -576 -12 -13 -23 -22 -26 -19 -6 6 -12 70 -21 223
-3 61 -7 133 -9 160 -2 28 -6 104 -10 170 -3 66 -8 138 -10 160 -2 22 -7 96
-10 165 -8 147 -11 161 -27 171 -19 12 -237 7 -247 -6z"/>
<path d="M5655 3764 c-183 -41 -250 -66 -347 -130 -147 -98 -243 -254 -281
-459 -21 -107 -17 -111 100 -91 111 19 232 61 308 107 76 45 166 136 211 212
50 86 97 229 98 302 l1 60 -35 2 c-19 0 -44 -1 -55 -3z"/>
<path d="M1250 3382 c-103 -8 -109 -19 -74 -159 40 -165 99 -280 183 -360 50
-48 169 -103 254 -118 72 -13 277 -13 309 0 25 10 27 26 12 106 -30 157 -93
299 -167 377 -112 117 -293 172 -517 154z"/>
<path d="M6091 3365 c-151 -42 -317 -191 -405 -362 -31 -62 -26 -70 87 -122
182 -85 301 -104 437 -70 90 23 164 66 237 138 87 87 177 231 171 274 -2 16
-23 32 -78 59 -166 83 -336 114 -449 83z"/>
<path d="M2291 3031 c-22 -22 -25 -47 -23 -185 5 -265 183 -440 479 -470 48
-5 54 -4 70 20 26 41 22 238 -7 323 -53 159 -172 254 -375 301 -49 12 -98 23
-107 26 -9 3 -26 -4 -37 -15z"/>
<path d="M5025 2893 c-253 -26 -483 -183 -668 -457 -48 -69 -53 -82 -39 -102
16 -26 258 -126 333 -139 19 -3 41 -8 49 -10 85 -23 253 -21 352 4 213 55 415
213 572 447 52 77 50 91 -15 124 -186 95 -422 149 -584 133z"/>
<path d="M1114 2565 c-178 -38 -333 -148 -481 -343 -94 -125 -149 -227 -135
-256 12 -27 179 -115 286 -151 218 -73 425 -71 595 7 159 72 321 239 422 434
56 108 54 114 -38 169 -205 120 -471 177 -649 140z"/>
<path d="M6050 2570 c-58 -10 -63 -16 -56 -74 8 -71 41 -185 76 -263 109 -239
301 -329 648 -302 52 4 66 23 57 77 -4 20 -9 51 -12 67 -9 56 -54 180 -85 235
-70 125 -149 191 -284 235 -63 21 -102 27 -194 29 -63 1 -131 -1 -150 -4z"/>
<path d="M2977 2204 c-1 -1 -20 -5 -42 -8 -65 -10 -77 -13 -138 -35 -82 -28
-135 -62 -194 -121 -58 -59 -94 -121 -128 -221 -31 -91 -39 -141 -40 -254 l0
-90 110 1 c134 0 188 8 284 40 233 78 358 277 376 599 5 94 2 97 -121 93 -58
-1 -106 -4 -107 -4z"/>
<path d="M5397 2079 c-32 -3 -63 -11 -69 -17 -28 -28 2 -178 59 -290 81 -163
229 -246 433 -243 151 2 170 9 165 69 -15 211 -125 381 -290 450 -79 32 -188
44 -298 31z"/>
<path d="M4295 2021 c-21 -35 -33 -224 -20 -316 19 -127 81 -257 158 -327 93
-85 256 -159 407 -183 19 -3 46 -8 60 -10 61 -13 81 50 76 235 -7 258 -100
413 -309 514 -130 64 -354 116 -372 87z"/>
<path d="M2027 1804 c-1 -1 -30 -4 -64 -7 -295 -28 -474 -184 -538 -471 -20
-87 -29 -236 -16 -256 14 -21 193 -19 296 4 296 65 449 265 471 616 3 47 1 90
-3 97 -7 10 -136 25 -146 17z"/>
</g>
</svg>
